<?xml version="1.0" standalone="no"?>
<!DOCTYPE svg PUBLIC "-//W3C//DTD SVG 20010904//EN"
 "http://www.w3.org/TR/2001/REC-SVG-20010904/DTD/svg10.dtd">
<svg version="1.0" xmlns="http://www.w3.org/2000/svg"
 width="500.000000pt" height="281.000000pt" viewBox="0 0 500.000000 281.000000"
 preserveAspectRatio="xMidYMid meet">

<g transform="translate(0.000000,281.000000) scale(0.100000,-0.100000)"
fill="#000000" stroke="none">
<path d="M1306 1808 c-4 -51 -9 -114 -13 -140 -6 -48 -6 -48 25 -48 35 0 42
16 42 98 0 28 3 52 8 52 4 0 19 -33 33 -72 20 -55 31 -74 46 -76 18 -3 25 9
49 80 l28 83 7 -45 c4 -25 8 -62 8 -82 1 -36 3 -38 34 -38 l33 0 -12 128 c-7
70 -13 133 -13 140 -1 7 -15 12 -35 12 -33 0 -35 -2 -61 -72 -15 -40 -31 -76
-34 -80 -4 -5 -20 28 -36 72 -30 80 -30 80 -66 80 l-36 0 -7 -92z"/>
<path d="M1690 1773 c-29 -70 -55 -134 -57 -140 -4 -9 6 -13 30 -13 30 0 37 4
46 30 9 28 13 30 60 30 46 0 52 -3 66 -30 12 -23 22 -30 45 -30 17 0 30 4 30
8 0 4 -24 66 -53 137 -51 123 -55 130 -84 133 -30 3 -31 1 -83 -125z m110 -34
c0 -5 -13 -9 -30 -9 -35 0 -34 -3 -14 46 l16 38 14 -33 c8 -18 14 -37 14 -42z"/>
<path d="M1950 1761 l0 -141 35 0 35 0 0 58 0 57 53 -58 c49 -55 54 -59 91
-55 l39 3 -49 55 c-85 94 -82 82 -25 148 28 32 51 62 51 65 0 4 -15 7 -34 7
-28 0 -39 -8 -77 -55 l-44 -56 -5 53 c-5 51 -6 53 -37 56 l-33 3 0 -140z"/>
<path d="M2250 1760 l0 -140 80 0 c79 0 80 0 80 25 0 23 -3 25 -50 25 -49 0
-50 1 -50 29 0 28 2 30 48 33 43 3 47 5 47 28 0 23 -4 25 -47 28 -46 3 -48 5
-48 33 0 28 1 29 50 29 47 0 50 2 50 25 0 25 -1 25 -80 25 l-80 0 0 -140z"/>
<path d="M2763 1630 c0 -25 2 -35 4 -22 2 12 2 32 0 45 -2 12 -4 2 -4 -23z"/>
<path d="M2632 1611 c13 -17 29 -30 37 -30 9 -1 4 10 -14 29 -37 39 -54 39
-23 1z"/>
<path d="M2875 1610 c-18 -19 -23 -30 -14 -29 15 0 67 59 52 59 -5 0 -22 -13
-38 -30z"/>
<path d="M1903 1529 c-42 -12 -90 -61 -102 -105 -27 -97 67 -196 173 -180 60
9 69 17 55 48 -10 23 -14 25 -44 15 -45 -14 -92 6 -112 48 -33 69 41 142 114
114 14 -5 27 -8 28 -7 5 7 25 47 25 52 0 4 -97 28 -103 25 -1 0 -16 -5 -34
-10z"/>
<path d="M2177 1526 c-48 -18 -62 -29 -81 -70 -61 -130 58 -255 188 -197 88
39 110 151 44 227 -16 18 -46 38 -66 44 -44 12 -38 12 -85 -4z m76 -57 c44
-20 59 -77 32 -128 -38 -75 -135 -40 -135 49 0 30 6 47 25 65 27 28 42 30 78
14z"/>
<path d="M1307 1523 c-4 -3 -7 -66 -7 -140 l0 -133 66 0 c80 0 123 22 149 77
34 71 6 151 -67 189 -27 14 -129 20 -141 7z m106 -55 c33 -17 46 -39 47 -79 0
-43 -24 -75 -62 -85 l-28 -6 0 91 c0 95 3 101 43 79z"/>
<path d="M1587 1523 c-4 -3 -7 -66 -7 -140 l0 -133 85 0 c84 0 85 0 85 25 0
23 -3 25 -50 25 -49 0 -50 1 -50 30 0 29 2 30 45 30 43 0 45 1 45 30 0 29 -2
30 -45 30 -43 0 -45 1 -45 30 0 29 1 30 50 30 47 0 50 2 50 25 0 25 -1 25 -78
25 -43 0 -82 -3 -85 -7z"/>
<path d="M2420 1390 l0 -140 30 0 c29 0 30 1 30 50 0 28 3 50 8 50 4 -1 24
-23 45 -50 35 -45 42 -50 79 -50 l40 0 -47 54 -46 54 26 26 c18 18 25 36 25
65 0 59 -33 81 -121 81 l-69 0 0 -140z m120 75 c15 -18 4 -52 -20 -60 -29 -9
-40 2 -40 41 0 29 3 34 24 34 13 0 29 -7 36 -15z"/>
<path d="M2690 1390 l0 -140 80 0 c78 0 80 1 80 24 0 23 -5 25 -47 28 -44 3
-48 5 -51 31 -3 26 -2 27 48 27 50 0 51 1 48 28 -3 25 -7 27 -51 30 -46 3 -48
4 -45 30 3 25 7 27 51 30 42 3 47 5 47 28 0 23 -2 24 -80 24 l-80 0 0 -140z"/>
</g>
</svg>
